<mxfile host="65bd71144e">
    <diagram id="_VBHkewYH_D-J4z-W8Vc" name="Page-1">
        <mxGraphModel dx="823" dy="1678" grid="0" gridSize="10" guides="1" tooltips="1" connect="1" arrows="1" fold="1" page="1" pageScale="1" pageWidth="850" pageHeight="1100" math="0" shadow="0">
            <root>
                <mxCell id="0"/>
                <mxCell id="1" parent="0"/>
                <mxCell id="32" style="edgeStyle=none;jumpSize=16;html=1;entryX=0;entryY=0.75;entryDx=0;entryDy=0;strokeWidth=3;fontSize=18;startArrow=classic;startFill=1;endArrow=openThin;endFill=0;" parent="1" source="6" target="16" edge="1">
                    <mxGeometry relative="1" as="geometry"/>
                </mxCell>
                <mxCell id="6" value="&lt;b&gt;&lt;font style=&quot;font-size: 36px;&quot;&gt;Cloud File System Driver&lt;br&gt;&lt;br&gt;&lt;br&gt;&lt;br&gt;&lt;br&gt;&lt;br&gt;&lt;br&gt;&lt;br&gt;&lt;br&gt;&lt;br&gt;&lt;br&gt;&lt;/font&gt;&lt;/b&gt;" style="rounded=1;whiteSpace=wrap;html=1;fontSize=18;" parent="1" vertex="1">
                    <mxGeometry x="310" y="230" width="920" height="485" as="geometry"/>
                </mxCell>
                <mxCell id="10" style="edgeStyle=none;html=1;fontSize=36;" parent="1" source="9" target="6" edge="1">
                    <mxGeometry relative="1" as="geometry"/>
                </mxCell>
                <mxCell id="9" value="Client" style="shape=umlActor;verticalLabelPosition=bottom;verticalAlign=top;html=1;outlineConnect=0;fontSize=36;" parent="1" vertex="1">
                    <mxGeometry x="220" y="445" width="30" height="60" as="geometry"/>
                </mxCell>
                <mxCell id="15" value="" style="group" parent="1" vertex="1" connectable="0">
                    <mxGeometry x="810" y="284" width="400" height="220" as="geometry"/>
                </mxCell>
                <mxCell id="2" value="&lt;font style=&quot;font-size: 18px;&quot;&gt;&lt;b&gt;Deduplication Manager&lt;br&gt;&lt;/b&gt;&lt;br&gt;&lt;br&gt;&lt;br&gt;&lt;/font&gt;" style="rounded=1;whiteSpace=wrap;html=1;container=0;fillColor=#f8cecc;strokeColor=#b85450;" parent="15" vertex="1">
                    <mxGeometry x="-121.12" width="491.12" height="190" as="geometry"/>
                </mxCell>
                <mxCell id="27" value="&lt;b&gt;Rabin Chunker: &lt;br&gt;Rabin Algorithm&lt;br&gt;&lt;/b&gt;" style="rounded=1;whiteSpace=wrap;html=1;fontSize=18;fillColor=#dae8fc;strokeColor=#6c8ebf;" parent="15" vertex="1">
                    <mxGeometry x="18" y="120" width="218.65" height="60" as="geometry"/>
                </mxCell>
                <mxCell id="5" value="" style="aspect=fixed;perimeter=ellipsePerimeter;html=1;align=center;shadow=0;dashed=0;fontColor=#4277BB;labelBackgroundColor=#ffffff;fontSize=12;spacingTop=3;image;image=img/lib/ibm/vpc/BlockStorage.svg;" parent="15" vertex="1">
                    <mxGeometry x="252.17391304347825" y="14.664137931034482" width="83.95655172413792" height="83.95655172413792" as="geometry"/>
                </mxCell>
                <mxCell id="30" style="edgeStyle=none;jumpSize=16;html=1;strokeWidth=3;fontSize=18;startArrow=classic;startFill=1;endArrow=openThin;endFill=0;" parent="15" source="27" target="5" edge="1">
                    <mxGeometry relative="1" as="geometry">
                        <mxPoint x="217.39130434782606" y="83.44827586206895" as="targetPoint"/>
                    </mxGeometry>
                </mxCell>
                <mxCell id="67" value="&lt;b style=&quot;border-color: var(--border-color);&quot;&gt;&lt;font color=&quot;#1a1a1a&quot;&gt;Global Chunks Metadata&lt;/font&gt;&lt;/b&gt;" style="text;html=1;strokeColor=none;fillColor=none;align=center;verticalAlign=middle;whiteSpace=wrap;rounded=0;labelBackgroundColor=none;" vertex="1" parent="15">
                    <mxGeometry x="232" y="95" width="110" height="30" as="geometry"/>
                </mxCell>
                <mxCell id="60" style="edgeStyle=orthogonalEdgeStyle;html=1;strokeWidth=2;curved=1;" edge="1" parent="1" source="16" target="18">
                    <mxGeometry relative="1" as="geometry"/>
                </mxCell>
                <mxCell id="61" style="edgeStyle=orthogonalEdgeStyle;html=1;entryX=0;entryY=0;entryDx=0;entryDy=0;entryPerimeter=0;curved=1;strokeWidth=2;" edge="1" parent="1" source="16" target="24">
                    <mxGeometry relative="1" as="geometry"/>
                </mxCell>
                <mxCell id="16" value="&lt;font style=&quot;font-size: 18px;&quot;&gt;&lt;b&gt;Deduplication CloudFS Handler&lt;/b&gt;&lt;/font&gt;" style="shape=hexagon;perimeter=hexagonPerimeter2;whiteSpace=wrap;html=1;fixedSize=1;fontSize=36;fillColor=#fff2cc;strokeColor=#d6b656;" parent="1" vertex="1">
                    <mxGeometry x="340" y="328" width="280" height="80" as="geometry"/>
                </mxCell>
                <mxCell id="25" style="edgeStyle=orthogonalEdgeStyle;html=1;fontSize=18;curved=1;startArrow=none;exitX=1;exitY=0.25;exitDx=0;exitDy=0;strokeWidth=2;" parent="1" source="17" target="18" edge="1">
                    <mxGeometry relative="1" as="geometry"/>
                </mxCell>
                <mxCell id="26" style="edgeStyle=none;html=1;fontSize=18;" parent="1" source="17" target="24" edge="1">
                    <mxGeometry relative="1" as="geometry"/>
                </mxCell>
                <mxCell id="17" value="&lt;font style=&quot;font-size: 18px;&quot;&gt;&lt;b&gt;Non-Deduplication CloudFS Handler&lt;/b&gt;&lt;/font&gt;" style="shape=hexagon;perimeter=hexagonPerimeter2;whiteSpace=wrap;html=1;fixedSize=1;fontSize=36;fillColor=#fff2cc;strokeColor=#d6b656;" parent="1" vertex="1">
                    <mxGeometry x="340" y="599" width="340" height="80" as="geometry"/>
                </mxCell>
                <mxCell id="18" value="&lt;b&gt;&lt;font style=&quot;font-size: 18px;&quot;&gt;SSD&lt;/font&gt;&lt;/b&gt;" style="aspect=fixed;html=1;points=[];align=center;image;fontSize=12;image=img/lib/azure2/general/SSD.svg;" parent="1" vertex="1">
                    <mxGeometry x="1248" y="314" width="121" height="110" as="geometry"/>
                </mxCell>
                <mxCell id="29" style="html=1;fontSize=18;endArrow=openThin;endFill=0;startArrow=classic;startFill=1;jumpSize=16;strokeWidth=3;entryX=-0.003;entryY=0.529;entryDx=0;entryDy=0;entryPerimeter=0;" parent="1" source="16" target="2" edge="1">
                    <mxGeometry relative="1" as="geometry"/>
                </mxCell>
                <mxCell id="28" value="&lt;b&gt;Chunk Manager&lt;/b&gt;" style="rounded=1;whiteSpace=wrap;html=1;fontSize=18;fillColor=#ffe6cc;strokeColor=#d79b00;" parent="1" vertex="1">
                    <mxGeometry x="415" y="408" width="190" height="59" as="geometry"/>
                </mxCell>
                <mxCell id="34" style="edgeStyle=none;jumpSize=16;html=1;entryX=0;entryY=0.5;entryDx=0;entryDy=0;strokeWidth=3;fontSize=18;startArrow=classic;startFill=1;endArrow=none;endFill=0;exitX=0.081;exitY=1.007;exitDx=0;exitDy=0;exitPerimeter=0;" parent="1" source="16" target="6" edge="1">
                    <mxGeometry relative="1" as="geometry"/>
                </mxCell>
                <mxCell id="35" style="edgeStyle=none;jumpSize=16;html=1;strokeWidth=3;fontSize=18;startArrow=classic;startFill=1;endArrow=none;endFill=0;exitX=0.057;exitY=0.026;exitDx=0;exitDy=0;exitPerimeter=0;entryX=0;entryY=0.5;entryDx=0;entryDy=0;" parent="1" source="17" target="6" edge="1">
                    <mxGeometry relative="1" as="geometry">
                        <mxPoint x="372.68000000000006" y="495.55999999999995" as="sourcePoint"/>
                        <mxPoint x="310" y="535" as="targetPoint"/>
                    </mxGeometry>
                </mxCell>
                <mxCell id="36" value="&lt;b&gt;Snapshot Manager&lt;/b&gt;" style="rounded=1;whiteSpace=wrap;html=1;fontSize=18;fillColor=#ffe6cc;strokeColor=#d79b00;" parent="1" vertex="1">
                    <mxGeometry x="415" y="471" width="195" height="64" as="geometry"/>
                </mxCell>
                <mxCell id="37" value="&lt;b&gt;Cache Manager&lt;/b&gt;" style="rounded=1;whiteSpace=wrap;html=1;fontSize=18;fillColor=#ffe6cc;strokeColor=#d79b00;" parent="1" vertex="1">
                    <mxGeometry x="770" y="497" width="210" height="58" as="geometry"/>
                </mxCell>
                <mxCell id="38" value="&lt;font style=&quot;font-size: 14px;&quot;&gt;Chunk Node&lt;br&gt;&lt;span style=&quot;border-color: var(--border-color);&quot;&gt;&lt;br&gt;Chunk Node&lt;br&gt;&lt;/span&gt;&lt;span style=&quot;border-color: var(--border-color);&quot;&gt;&lt;br&gt;Chunk Node&lt;br&gt;&lt;/span&gt;&lt;span style=&quot;border-color: var(--border-color);&quot;&gt;&lt;br&gt;Chunk Node&lt;br&gt;&lt;/span&gt;&lt;br&gt;&lt;br&gt;LRU's Doubly Linked List&lt;/font&gt;" style="sketch=0;html=1;aspect=fixed;strokeColor=none;shadow=0;align=center;verticalAlign=top;fillColor=#3B8DF1;shape=mxgraph.gcp2.view_list;fontSize=18;" parent="1" vertex="1">
                    <mxGeometry x="980" y="479" width="153.9" height="190" as="geometry"/>
                </mxCell>
                <mxCell id="3" value="" style="aspect=fixed;html=1;points=[];align=center;image;fontSize=12;image=img/lib/azure2/general/Blob_Block.svg;" parent="1" vertex="1">
                    <mxGeometry x="714.5391304347827" y="303.6641379310345" width="95.45724137931033" height="76.37034482758621" as="geometry"/>
                </mxCell>
                <mxCell id="31" style="edgeStyle=none;jumpSize=16;html=1;strokeWidth=3;fontSize=18;startArrow=classic;startFill=1;endArrow=openThin;endFill=0;" parent="1" source="27" target="3" edge="1">
                    <mxGeometry relative="1" as="geometry"/>
                </mxCell>
                <mxCell id="46" style="html=1;fontSize=18;endArrow=openThin;endFill=0;startArrow=classic;startFill=1;jumpSize=16;strokeWidth=3;entryX=0;entryY=0.5;entryDx=0;entryDy=0;" parent="1" target="37" edge="1">
                    <mxGeometry relative="1" as="geometry">
                        <mxPoint x="595.7928571428574" y="495" as="sourcePoint"/>
                        <mxPoint x="698.8800000000001" y="460.99707850344" as="targetPoint"/>
                    </mxGeometry>
                </mxCell>
                <mxCell id="49" value="" style="outlineConnect=0;dashed=0;verticalLabelPosition=bottom;verticalAlign=top;align=center;html=1;shape=mxgraph.aws3.ec2_systems_manager;fillColor=#759C3E;gradientColor=none;fontSize=18;" parent="1" vertex="1">
                    <mxGeometry x="368" y="425" width="50" height="50" as="geometry"/>
                </mxCell>
                <mxCell id="50" value="" style="shadow=0;dashed=0;html=1;labelPosition=center;verticalLabelPosition=bottom;verticalAlign=top;align=center;outlineConnect=0;shape=mxgraph.veeam.3d.failover_protective_snapshot;fontSize=18;" parent="1" vertex="1">
                    <mxGeometry x="372" y="495" width="46" height="46" as="geometry"/>
                </mxCell>
                <mxCell id="51" value="" style="aspect=fixed;html=1;points=[];align=center;image;fontSize=12;image=img/lib/azure2/general/Cache.svg;" parent="1" vertex="1">
                    <mxGeometry x="789" y="535" width="64" height="64" as="geometry"/>
                </mxCell>
                <mxCell id="52" value="" style="edgeStyle=orthogonalEdgeStyle;html=1;fontSize=18;curved=1;startArrow=none;endArrow=none;strokeWidth=2;" parent="1" source="17" target="24" edge="1">
                    <mxGeometry relative="1" as="geometry">
                        <mxPoint x="680" y="639" as="sourcePoint"/>
                        <mxPoint x="1310.6" y="375" as="targetPoint"/>
                    </mxGeometry>
                </mxCell>
                <mxCell id="24" value="&lt;font style=&quot;font-size: 18px;&quot;&gt;&lt;b&gt;S3 Service&lt;/b&gt;&lt;/font&gt;" style="sketch=0;points=[[0,0,0],[0.25,0,0],[0.5,0,0],[0.75,0,0],[1,0,0],[0,1,0],[0.25,1,0],[0.5,1,0],[0.75,1,0],[1,1,0],[0,0.25,0],[0,0.5,0],[0,0.75,0],[1,0.25,0],[1,0.5,0],[1,0.75,0]];outlineConnect=0;fontColor=#232F3E;gradientColor=#60A337;gradientDirection=north;fillColor=#277116;strokeColor=#ffffff;dashed=0;verticalLabelPosition=bottom;verticalAlign=top;align=center;html=1;fontSize=12;fontStyle=0;aspect=fixed;shape=mxgraph.aws4.resourceIcon;resIcon=mxgraph.aws4.s3;" parent="1" vertex="1">
                    <mxGeometry x="1255.5" y="585" width="110" height="110" as="geometry"/>
                </mxCell>
                <mxCell id="53" value="Temporary File" style="verticalLabelPosition=bottom;html=1;verticalAlign=top;align=center;strokeColor=none;fillColor=#00BEF2;shape=mxgraph.azure.cloud_services_configuration_file;pointerEvents=1;" vertex="1" parent="1">
                    <mxGeometry x="593" y="408" width="47.5" height="50" as="geometry"/>
                </mxCell>
                <mxCell id="54" value="Cache File" style="verticalLabelPosition=bottom;html=1;verticalAlign=top;align=center;strokeColor=none;fillColor=#00BEF2;shape=mxgraph.azure.cloud_services_configuration_file;pointerEvents=1;" vertex="1" parent="1">
                    <mxGeometry x="889" y="538" width="47.5" height="50" as="geometry"/>
                </mxCell>
                <mxCell id="66" value="&lt;b style=&quot;border-color: var(--border-color);&quot;&gt;Local Files' Chunks Infomation&amp;nbsp;&lt;/b&gt;" style="text;html=1;strokeColor=none;fillColor=none;align=center;verticalAlign=middle;whiteSpace=wrap;rounded=0;labelBackgroundColor=none;" vertex="1" parent="1">
                    <mxGeometry x="686" y="380" width="154" height="28" as="geometry"/>
                </mxCell>
            </root>
        </mxGraphModel>
    </diagram>
</mxfile>